<svg xmlns="http://www.w3.org/2000/svg" viewBox="0 0 453.677 453.677" fill="currentColor">
  <path d="M93.302 276.402c-34.638 0-62.818 28.18-62.818 62.818
           0 34.637 28.18 62.816 62.818 62.816
           34.638 0 62.817-28.179 62.817-62.816
           0-34.638-28.179-62.818-62.817-62.818zm0 111.634
           c-26.92 0-48.819-21.899-48.819-48.816
           0-26.918 21.899-48.818 48.819-48.818
           26.918 0 48.818 21.9 48.818 48.818
           0 26.917-21.9 48.816-48.818 48.816z"/>
  <path d="M390.859 276.402c-34.639 0-62.819 28.18-62.819 62.818
           0 34.637 28.181 62.816 62.819 62.816
           34.638 0 62.817-28.179 62.817-62.816
           0-34.638-28.179-62.818-62.817-62.818z"/>
  <path d="M210 260h120c12 0 18-6 22-18l12-40
           c8-26-10-52-38-52H198l-28-40H96
           c-8 0-14 6-14 14s6 14 14 14h60l28 40
           c6 8 14 12 24 12h120c8 0 12 6 10 14l-10 32
           H220c-8 0-14 6-14 14s6 14 14 14z"/>
</svg>
